<?xml version="1.0" standalone="no"?>
<!DOCTYPE svg PUBLIC "-//W3C//DTD SVG 20010904//EN"
 "http://www.w3.org/TR/2001/REC-SVG-20010904/DTD/svg10.dtd">
<svg version="1.0" xmlns="http://www.w3.org/2000/svg"
 width="457.000000pt" height="327.000000pt" viewBox="0 0 457.000000 327.000000"
 preserveAspectRatio="xMidYMid meet">

<g transform="translate(0.000000,327.000000) scale(0.100000,-0.100000)">
<path d="M875 3244 c-25 -38 -41 -141 -29 -194 12 -59 33 -65 27 -7 -3 24 3
83 12 131 10 48 15 89 13 92 -3 2 -13 -7 -23 -22z"/>
<path d="M1175 3214 c-55 -7 -105 -16 -112 -18 -7 -3 -22 -24 -35 -48 -18 -35
-23 -64 -26 -151 -5 -129 9 -194 45 -208 15 -5 23 -17 23 -32 0 -30 19 -87 30
-87 4 0 54 14 110 30 171 51 250 103 199 131 -20 10 -21 17 -18 137 l4 126
-32 10 c-30 8 -33 12 -34 52 -2 68 -3 69 -29 71 -14 0 -70 -5 -125 -13z m128
-57 c-5 -34 -9 -37 -37 -37 -17 0 -49 5 -71 10 -36 8 -43 6 -68 -18 -33 -31
-53 -98 -63 -205 -6 -77 -18 -102 -36 -76 -17 25 -2 218 22 282 l21 57 52 1
c29 1 81 6 117 13 36 6 66 11 67 11 1 -1 0 -18 -4 -38z m-63 -76 c30 -6 71
-13 90 -16 l35 -5 -1 -126 c-1 -146 12 -128 -134 -185 -52 -20 -103 -40 -112
-43 -14 -6 -18 2 -24 51 -9 73 9 256 30 307 13 32 20 37 38 32 13 -3 48 -10
78 -15z"/>
<path d="M3317 3156 c-76 -32 -197 -104 -204 -122 -3 -9 3 -21 14 -29 11 -8
33 -42 49 -77 24 -54 28 -76 29 -150 0 -97 -3 -94 74 -76 53 12 73 6 53 -14
-7 -7 -12 -22 -12 -34 0 -18 7 -22 53 -28 28 -3 75 -6 104 -6 28 0 54 -4 57
-9 3 -5 15 -7 26 -4 45 12 100 96 120 183 14 67 13 265 -2 277 -23 18 -63 23
-119 13 -51 -9 -55 -8 -74 17 -39 51 -75 83 -92 83 -10 0 -44 -11 -76 -24z
m133 -62 c36 -57 52 -130 48 -220 l-3 -67 -115 -39 c-63 -21 -122 -40 -130
-43 -12 -4 -15 9 -16 73 -1 80 -30 178 -59 202 -18 15 -19 36 -2 43 6 3 57 26
112 51 55 25 108 46 118 46 10 0 30 -20 47 -46z m214 -89 c14 -61 -7 -192 -43
-263 -17 -34 -36 -64 -43 -68 -13 -8 -109 -7 -176 3 -36 4 -43 9 -40 25 2 15
21 27 68 44 96 36 104 49 97 164 -4 52 -9 105 -13 118 -6 23 -6 23 67 20 l73
-3 10 -40z"/>
<path d="M3815 3016 c0 -102 2 -123 13 -113 28 28 27 182 -1 221 -10 13 -12
-8 -12 -108z"/>
<path d="M2407 2870 c-21 -4 -42 -11 -48 -17 -5 -5 -13 -42 -16 -81 -5 -59 -9
-72 -23 -72 -42 0 -78 -93 -46 -119 9 -7 25 -11 36 -8 15 4 24 -2 35 -23 20
-39 20 -40 -17 -40 -118 1 -217 -33 -339 -115 -123 -83 -194 -149 -250 -231
-27 -40 -53 -75 -59 -79 -21 -13 -73 -100 -84 -140 -9 -37 -29 -59 -133 -154
-67 -61 -125 -111 -128 -111 -3 0 -5 15 -5 33 0 65 -27 151 -54 172 -23 18
-26 28 -26 78 0 80 -23 103 -114 112 -137 15 -353 -24 -401 -71 -17 -18 -21
-105 -5 -134 5 -10 27 -24 47 -31 39 -14 182 -17 243 -6 54 10 67 -3 45 -48
-26 -55 -14 -124 56 -339 35 -107 81 -184 116 -193 32 -7 99 26 200 99 40 28
75 49 78 46 3 -3 -24 -63 -59 -135 -35 -71 -101 -221 -146 -334 -45 -112 -102
-245 -127 -295 -37 -74 -43 -95 -34 -111 9 -18 2 -24 -77 -61 -48 -23 -132
-67 -187 -100 -83 -49 -100 -63 -100 -83 0 -34 39 -36 170 -9 58 12 111 20
116 18 6 -2 -17 -25 -50 -51 -49 -39 -61 -54 -61 -77 0 -49 26 -46 152 19 64
34 119 61 122 61 3 0 -13 -37 -34 -82 -44 -91 -54 -158 -22 -158 16 0 147 125
220 209 l29 34 39 -43 c55 -61 112 -100 146 -100 47 0 45 24 -9 134 -45 89
-51 107 -48 156 5 104 112 424 221 658 26 57 117 297 159 420 4 10 121 -72
288 -201 33 -25 40 -54 57 -222 6 -60 24 -180 41 -266 16 -85 29 -169 29 -186
0 -17 7 -36 15 -43 8 -7 15 -23 15 -36 0 -12 4 -33 9 -46 12 -32 156 -174 207
-204 52 -31 161 -74 187 -74 30 0 107 58 107 81 0 48 -61 146 -152 244 -36 40
-36 42 -27 85 11 47 8 73 -16 175 -7 33 -21 98 -30 145 -26 132 -85 339 -115
405 -28 61 -148 211 -221 275 -60 54 -55 64 67 121 58 27 122 62 141 77 l36
27 16 -25 c33 -51 78 -94 130 -128 30 -19 75 -51 100 -70 59 -45 178 -102 212
-102 38 0 131 50 302 163 130 86 185 128 298 231 20 18 46 40 59 49 14 10 25
31 29 53 5 30 13 40 51 60 52 28 106 31 194 10 34 -8 100 -24 149 -36 116 -28
141 -25 145 19 3 28 -3 39 -41 76 l-45 42 64 7 c86 9 94 13 94 47 0 41 -57 77
-200 126 -8 3 26 16 77 29 126 33 143 40 143 62 0 15 -14 24 -62 38 -51 15
-96 19 -240 19 -98 0 -178 1 -178 2 0 1 23 28 50 59 74 85 80 134 18 134 -71
0 -270 -155 -377 -294 -24 -30 -46 -55 -49 -54 -23 3 -45 -14 -154 -119 -108
-106 -244 -262 -292 -335 -10 -16 -21 -28 -25 -28 -13 0 -50 75 -105 209 -29
72 -68 156 -87 187 -43 73 -136 174 -159 174 -10 0 -32 6 -49 13 l-31 13 35
13 c19 7 40 22 47 34 15 30 15 148 -1 223 -13 59 -12 63 10 93 12 17 19 34 16
38 -20 19 -232 28 -310 13z m3 -56 c0 -17 -22 -14 -28 4 -2 7 3 12 12 12 9 0
16 -7 16 -16z m250 -49 c0 -8 -9 -15 -20 -15 -29 0 -25 -27 5 -34 24 -6 25 -9
25 -95 0 -98 -2 -101 -65 -119 -38 -11 -42 -16 -58 -68 -9 -30 -14 -60 -11
-66 7 -12 -63 -78 -83 -78 -7 0 -13 11 -13 25 0 14 -12 43 -26 64 -24 37 -25
41 -10 70 23 43 20 59 -14 91 -19 18 -30 38 -30 55 0 26 -2 27 -36 21 -31 -6
-35 -5 -32 11 2 12 11 17 27 15 15 -2 21 0 17 7 -11 17 10 13 24 -4 19 -23 30
-8 30 38 0 46 23 83 55 89 11 2 64 5 118 6 79 1 97 -2 97 -13z m1280 -121 c0
-3 -29 -38 -65 -77 -66 -72 -89 -114 -75 -137 6 -10 19 -10 61 0 70 16 389 26
389 13 0 -5 -51 -20 -112 -33 -117 -24 -158 -40 -158 -65 0 -20 11 -25 127
-51 57 -13 126 -34 151 -46 l47 -22 -40 -4 c-22 -2 -84 2 -139 8 -106 12 -120
8 -114 -31 2 -19 21 -33 88 -65 47 -23 94 -52 105 -64 l20 -23 -20 8 c-71 28
-288 86 -330 88 -39 1 -65 -6 -117 -32 -37 -18 -85 -35 -106 -38 -37 -5 -38
-4 -64 43 -35 67 -61 150 -54 177 11 47 167 205 294 299 61 45 112 69 112 52z
m-1584 -224 c10 -48 10 -50 -12 -50 -13 0 -34 -4 -47 -9 -14 -6 -27 -8 -30 -5
-2 3 5 29 16 59 16 43 24 55 41 55 18 0 24 -9 32 -50z m-173 -27 c-2 -21 -9
-41 -16 -45 -9 -5 -9 -10 1 -20 14 -14 16 -58 2 -58 -5 0 -10 -10 -10 -22 0
-32 -47 -95 -77 -103 l-26 -6 22 -23 c23 -24 28 -70 9 -82 -6 -4 -14 -2 -16 4
-13 40 -55 80 -117 113 l-70 36 -37 -24 c-32 -21 -38 -32 -43 -72 -10 -75 -14
-87 -35 -112 l-21 -24 3 71 c3 59 8 79 32 112 41 59 72 77 130 75 27 -2 54 -7
60 -13 18 -18 21 -11 18 53 -3 48 0 66 12 76 28 23 46 6 46 -43 0 -50 14 -66
37 -43 10 10 17 41 20 89 5 77 18 98 59 98 19 0 21 -4 17 -37z m455 -43 l3
-54 -28 24 c-15 14 -29 26 -31 27 -9 4 31 64 41 60 6 -2 13 -28 15 -57z m39
-12 c-3 -7 -5 -2 -5 12 0 14 2 19 5 13 2 -7 2 -19 0 -25z m-317 -31 c0 -8 -20
-36 -45 -63 -65 -72 -74 -109 -18 -81 16 9 44 38 63 66 19 28 41 51 48 51 20
0 13 -23 -18 -60 -17 -19 -30 -44 -30 -55 0 -48 -78 -87 -132 -66 -51 19 -32
93 44 174 43 46 88 63 88 34z m420 -22 c16 -19 7 -31 -36 -45 -42 -14 -59 -27
-126 -95 -72 -72 -93 -103 -111 -160 -24 -80 -26 -93 -11 -112 12 -15 15 -16
23 -3 6 8 13 12 16 8 9 -8 -46 -69 -58 -65 -6 2 -21 -7 -35 -20 -24 -23 -52
-31 -52 -15 0 4 9 25 20 47 11 22 20 58 20 82 0 23 10 66 21 95 17 41 22 76
23 155 1 99 2 103 23 103 20 0 22 -5 25 -70 l3 -70 67 65 c37 36 71 66 75 66
4 0 7 8 5 17 -2 13 -1 14 6 4 7 -11 16 -9 43 7 41 25 43 25 59 6z m627 -98
c-79 -85 -84 -94 -71 -112 8 -11 19 -38 24 -60 6 -22 15 -56 20 -75 6 -19 12
-44 14 -55 1 -11 8 -40 15 -63 11 -39 10 -45 -6 -58 -29 -22 -42 -16 -52 24
-5 20 -19 78 -31 128 -29 120 -32 125 -65 94 -14 -13 -31 -35 -38 -49 -8 -15
-18 -35 -23 -46 -6 -11 -18 -35 -27 -53 -17 -33 -44 -165 -49 -237 -2 -29 -8
-41 -21 -43 -17 -4 -18 4 -16 105 2 59 7 111 11 114 5 3 10 20 11 37 1 18 5
32 10 32 4 0 7 6 7 13 0 17 351 397 367 397 3 0 -33 -42 -80 -93z m124 -34
c19 -59 49 -106 93 -145 45 -40 47 -38 -45 -58 -66 -15 -117 -8 -153 21 -32
25 -34 60 -5 114 20 38 76 103 91 104 3 1 12 -16 19 -36z m-93 5 c-6 -18 -28
-21 -28 -4 0 9 7 16 16 16 9 0 14 -5 12 -12z m-575 -11 c6 -17 1 -24 -45 -64
-45 -38 -37 -47 39 -45 29 1 54 -3 55 -8 0 -6 1 -15 2 -22 1 -15 -99 -36 -131
-29 -41 11 -66 40 -58 69 8 34 20 48 69 84 43 31 61 35 69 15z m7 -62 c0 -8
-4 -15 -10 -15 -5 0 -10 7 -10 15 0 8 5 15 10 15 6 0 10 -7 10 -15z m-1146
-80 c-9 -28 -18 -75 -21 -105 -5 -64 -21 -120 -33 -120 -23 0 -21 55 6 193 5
25 52 92 60 84 2 -1 -4 -25 -12 -52z m684 4 c-3 -28 -10 -54 -17 -58 -6 -4
-14 -18 -16 -32 -3 -13 -10 -46 -16 -74 -7 -27 -15 -63 -19 -80 -3 -17 -14
-31 -23 -33 -13 -3 -17 4 -17 30 0 42 26 151 44 186 7 15 17 37 20 49 7 21 5
22 -23 12 -16 -6 -50 -31 -74 -56 -35 -35 -48 -59 -60 -104 -15 -59 -13 -104
6 -128 9 -10 6 -17 -8 -27 -10 -8 -22 -14 -25 -14 -15 0 -30 55 -30 108 0 132
118 272 229 272 l34 0 -5 -51z m-1230 5 l42 -5 0 -49 c0 -27 3 -55 6 -64 4
-10 1 -16 -8 -16 -8 0 -36 -11 -63 -24 l-48 -25 -18 22 c-16 21 -25 22 -167
22 -160 0 -182 6 -182 50 0 29 12 38 85 64 91 33 216 42 353 25z m702 -3 c0
-6 -4 -13 -10 -16 -5 -3 -10 1 -10 9 0 9 5 16 10 16 6 0 10 -4 10 -9z m194
-23 c-4 -13 -23 -61 -44 -108 -30 -68 -68 -169 -75 -200 -10 -40 -19 -60 -26
-60 -5 0 -6 -6 -4 -13 5 -12 -26 -109 -85 -267 -18 -47 -42 -112 -54 -145 -17
-48 -26 -60 -41 -58 -11 1 -14 0 -7 -3 15 -7 16 -34 1 -34 -5 0 -8 -4 -4 -9 3
-6 -14 -54 -38 -108 -62 -138 -187 -519 -187 -569 0 -22 -3 -24 -47 -22 -45 1
-46 2 -10 5 36 4 38 6 36 36 -2 18 3 42 9 54 7 12 12 35 12 50 0 16 4 33 9 38
11 13 41 137 41 171 0 25 -2 26 -37 20 -21 -3 -57 -8 -81 -10 -23 -3 -67 -10
-97 -17 -61 -14 -72 -10 -56 18 7 15 33 24 108 37 156 28 150 23 103 91 -20
29 -44 49 -75 61 -46 19 -58 40 -29 51 18 7 72 -19 109 -51 12 -12 35 -45 49
-73 34 -68 51 -69 62 -6 3 15 9 32 13 38 11 14 25 84 22 116 -2 19 3 28 18 32
17 4 21 13 21 45 0 23 -4 44 -10 47 -5 3 -48 9 -94 12 -93 6 -112 13 -103 37
6 14 19 15 94 10 l88 -7 -34 37 c-19 20 -40 36 -45 36 -6 0 -19 7 -29 15 -22
16 -15 55 9 55 38 0 134 -84 149 -130 4 -12 15 -20 30 -20 24 0 35 17 35 56 0
13 5 24 11 24 7 0 10 14 7 38 -3 24 0 40 9 47 8 6 15 25 15 42 1 18 7 34 15
37 8 3 12 10 9 15 -8 13 15 62 25 55 5 -3 9 2 9 10 0 22 -13 27 -83 32 -49 4
-68 11 -89 31 -29 28 -35 52 -18 69 7 7 22 0 47 -23 33 -32 39 -34 97 -31 l61
3 0 34 c0 19 6 36 13 39 7 2 12 12 12 22 0 10 5 22 10 25 19 12 10 23 -34 45
-57 27 -118 93 -109 117 15 43 24 43 57 0 17 -23 51 -52 76 -65 l45 -23 3 26
c2 14 11 29 21 35 20 10 34 47 21 55 -14 8 2 54 27 80 32 31 47 32 37 3z m41
-69 c-10 -79 -52 -165 -71 -146 -3 3 1 18 9 34 9 16 25 59 37 96 12 37 24 67
27 67 2 0 1 -23 -2 -51z m822 -45 c-9 -9 -28 6 -21 18 4 6 10 6 17 -1 6 -6 8
-13 4 -17z m-1636 -132 l12 -91 -36 -40 c-43 -48 -52 -90 -15 -70 13 7 92 80
176 164 l153 151 20 -45 c11 -25 26 -53 35 -62 13 -14 9 -30 -37 -145 -29 -71
-56 -135 -62 -141 -5 -7 -36 -27 -70 -44 -33 -16 -74 -41 -91 -53 -43 -33
-111 -66 -135 -66 -18 0 -60 46 -65 73 -2 7 -5 19 -8 27 -31 90 -49 158 -58
222 -6 43 -15 92 -20 110 -11 38 -5 47 52 76 73 37 122 51 130 37 4 -6 13 -53
19 -103z m1524 53 c175 -19 195 -40 95 -104 -33 -20 -57 -41 -53 -46 5 -4 -4
0 -19 10 -16 9 -28 19 -28 21 0 2 18 13 41 24 23 12 39 24 36 27 -3 2 -41 9
-84 14 -59 7 -82 15 -95 30 -26 31 -22 41 15 35 17 -3 59 -8 92 -11z m-795
-129 c0 -2 -7 -6 -15 -10 -8 -3 -15 -1 -15 4 0 6 7 10 15 10 8 0 15 -2 15 -4z
m230 -26 c0 -6 47 -66 105 -134 156 -187 159 -192 211 -428 24 -112 55 -249
69 -305 14 -57 25 -114 25 -129 0 -62 -112 -115 -212 -100 l-45 7 -11 67 c-25
145 -42 262 -57 380 -9 68 -26 154 -38 191 -21 65 -28 74 -130 170 -60 56
-133 116 -163 132 -56 32 -60 41 -45 82 9 22 17 25 90 31 45 3 103 15 129 25
55 22 72 25 72 11z m695 -48 c-3 -3 -11 0 -18 7 -9 10 -8 11 6 5 10 -3 15 -9
12 -12z m-1547 -885 c2 -19 -1 -27 -12 -27 -11 0 -16 10 -16 31 0 38 24 35 28
-4z m1333 -255 c101 -138 111 -174 53 -198 -20 -8 -45 -12 -57 -8 -59 18 -147
70 -208 125 -63 56 -117 124 -107 134 2 3 20 0 39 -5 53 -16 130 -11 174 9 22
11 42 20 45 20 3 0 30 -34 61 -77z m-1501 43 c13 -14 21 -25 18 -25 -2 0 -15
11 -28 25 -13 14 -21 25 -18 25 2 0 15 -11 28 -25z m-36 -44 c44 -46 159 -94
241 -100 60 -5 70 -9 74 -26 2 -11 21 -50 42 -87 67 -114 49 -116 -81 -10 -28
23 -59 42 -67 42 -8 0 -29 -17 -46 -37 -42 -48 -161 -163 -165 -158 -2 1 18
44 43 95 44 88 50 120 23 120 -7 0 -67 -27 -132 -60 -66 -33 -121 -58 -124
-56 -5 6 25 32 108 93 72 53 83 79 35 77 -31 -1 -212 -29 -255 -40 -14 -3 15
18 64 47 48 30 113 71 145 91 31 21 59 38 62 38 3 0 18 -13 33 -29z m193 -47
c-3 -3 -12 -4 -19 -1 -8 3 -5 6 6 6 11 1 17 -2 13 -5z"/>
<path d="M2493 2733 c-21 -8 -15 -23 10 -23 33 0 67 11 67 21 0 9 -56 11 -77
2z"/>
<path d="M2520 2670 c0 -11 7 -20 15 -20 8 0 15 9 15 20 0 11 -7 20 -15 20 -8
0 -15 -9 -15 -20z"/>
<path d="M2590 2686 c0 -3 4 -16 10 -30 6 -16 6 -27 0 -31 -6 -4 -10 -13 -10
-21 0 -18 39 -19 46 0 7 17 -22 86 -35 86 -6 0 -11 -2 -11 -4z"/>
<path d="M2632 2679 c2 -7 10 -15 17 -17 8 -3 12 1 9 9 -2 7 -10 15 -17 17 -8
3 -12 -1 -9 -9z"/>
<path d="M2545 2570 c-8 -13 3 -30 20 -30 23 0 27 18 6 30 -13 7 -22 7 -26 0z"/>
<path d="M3497 2058 c-7 -24 7 -38 35 -38 15 0 15 3 2 30 -18 36 -30 38 -37 8z"/>
<path d="M1822 2749 c-51 -39 -59 -59 -23 -59 25 0 42 -22 39 -51 -3 -22 0
-23 37 -20 54 4 65 16 65 66 0 32 -7 52 -26 74 -14 17 -29 31 -32 31 -4 0 -31
-19 -60 -41z m94 -45 c7 -28 0 -38 -31 -48 -17 -5 -22 1 -32 32 -10 31 -10 39
4 49 21 16 51 0 59 -33z"/>
<path d="M819 2635 c-69 -36 -71 -42 -44 -109 44 -108 98 -169 172 -194 30
-10 34 -8 63 24 17 20 42 53 57 75 l26 39 -72 71 c-39 39 -79 81 -87 95 -21
31 -55 31 -115 -1z m121 -60 c24 -31 60 -69 81 -86 43 -34 44 -32 -19 -103
l-32 -37 -44 30 c-24 17 -57 48 -74 68 -27 35 -72 114 -72 128 0 5 99 54 111
55 4 0 26 -25 49 -55z"/>
<path d="M540 2481 c0 -26 60 -110 92 -129 43 -26 45 -5 3 36 -21 20 -49 54
-63 75 -28 42 -32 44 -32 18z"/>
<path d="M1684 2406 c-92 -62 -233 -231 -250 -298 -10 -45 17 -34 55 22 18 27
85 102 147 167 62 65 114 121 114 125 0 19 -21 14 -66 -16z"/>
<path d="M1507 2375 c-37 -31 -67 -62 -67 -70 0 -8 3 -15 6 -15 9 0 144 124
144 133 0 16 -19 5 -83 -48z"/>
<path d="M275 2060 c-48 -53 -68 -199 -41 -292 17 -60 58 -118 83 -118 11 0 6
10 -15 34 -44 51 -55 94 -50 205 5 108 26 168 56 156 9 -4 44 -13 77 -22 33
-8 61 -16 63 -17 1 -2 -5 -17 -14 -35 -22 -45 -14 -143 15 -182 12 -16 21 -32
21 -36 0 -5 -22 -19 -49 -32 -51 -24 -95 -61 -72 -61 7 0 21 5 32 11 16 8 26
5 54 -20 31 -27 88 -51 123 -51 29 0 80 47 113 104 74 127 74 124 -1 145 -24
7 -59 28 -78 47 -19 19 -37 34 -40 34 -4 0 -25 -14 -46 -30 -22 -17 -43 -30
-47 -30 -13 0 3 73 24 113 25 44 18 54 -44 69 -101 23 -148 25 -164 8z m308
-206 c17 -21 46 -43 64 -51 18 -7 33 -17 33 -22 0 -4 -28 -38 -62 -76 -56 -61
-65 -67 -93 -62 -17 3 -46 14 -65 25 l-33 20 40 20 c66 34 70 46 29 83 -20 17
-36 35 -36 39 0 6 76 58 88 60 1 0 17 -16 35 -36z"/>
<path d="M4006 1626 c-61 -24 -112 -48 -114 -54 -2 -6 4 -34 12 -63 9 -29 16
-63 16 -76 0 -20 -5 -23 -38 -23 -20 0 -52 4 -69 9 -32 9 -33 8 -43 -27 -5
-20 -22 -58 -37 -84 -28 -48 -166 -198 -182 -198 -5 0 -33 27 -64 61 -61 68
-85 74 -120 27 -15 -20 -21 -42 -20 -78 1 -43 7 -58 44 -107 24 -31 79 -87
122 -124 62 -54 93 -73 151 -92 63 -21 77 -23 107 -13 58 20 146 85 190 139
38 47 149 260 149 286 0 5 17 13 38 16 130 22 191 44 167 62 -5 5 -11 40 -12
78 -2 90 -17 147 -55 205 -30 46 -95 100 -120 100 -7 0 -62 -20 -122 -44z
m180 -42 c24 -25 52 -65 63 -87 19 -40 43 -180 34 -203 -2 -7 -23 -15 -46 -18
-23 -4 -57 -9 -74 -12 l-33 -6 0 54 c0 65 -11 78 -64 78 -23 0 -57 3 -77 6
-35 6 -36 8 -50 73 -8 36 -14 72 -14 80 0 10 34 26 100 47 55 18 104 32 109
33 5 1 29 -20 52 -45z m-266 -221 c47 -8 104 -13 127 -10 62 7 69 -2 55 -63
-20 -85 -126 -297 -169 -337 -74 -69 -135 -112 -171 -123 -32 -9 -39 -8 -54
10 -13 16 -14 27 -7 53 15 51 12 56 -58 124 l-68 64 30 22 c88 64 158 154 177
225 16 62 17 64 36 57 9 -4 55 -13 102 -22z m-438 -234 c35 -39 94 -95 131
-126 65 -52 68 -56 61 -86 -4 -18 -6 -44 -5 -59 1 -16 -1 -28 -4 -28 -41 0
-244 181 -279 249 -24 45 -8 121 25 121 4 0 36 -32 71 -71z"/>
<path d="M518 1215 c-38 -13 -72 -26 -76 -29 -4 -3 -7 -35 -5 -73 7 -158 78
-272 178 -288 40 -7 40 -6 70 44 30 50 45 63 45 38 0 -15 -92 -127 -115 -140
-20 -11 -92 9 -138 39 -40 26 -117 134 -117 164 0 10 9 29 21 44 25 32 14 34
-24 3 -28 -22 -28 -24 -18 -65 17 -62 90 -162 142 -194 24 -15 66 -31 92 -34
44 -6 51 -4 79 22 40 38 108 142 108 166 0 10 -7 18 -15 18 -19 0 -19 3 5 50
25 49 25 62 1 77 -10 6 -44 50 -75 97 -35 55 -63 86 -74 86 -9 -1 -47 -12 -84
-25z m126 -63 c19 -38 47 -83 61 -100 15 -18 25 -36 23 -40 -16 -40 -105 -162
-117 -162 -49 0 -113 76 -141 168 -36 116 -28 137 63 167 32 10 60 22 63 27 9
14 13 9 48 -60z"/>
<path d="M2753 1038 c3 -12 8 -45 12 -73 14 -111 26 -155 42 -155 14 0 15 12
10 83 -6 100 -25 160 -51 165 -15 3 -18 0 -13 -20z"/>
<path d="M2880 943 c0 -18 5 -33 10 -33 13 0 13 30 0 50 -7 11 -10 7 -10 -17z"/>
<path d="M4100 906 c-30 -59 -96 -113 -171 -140 -36 -13 -49 -23 -47 -35 2
-12 12 -15 36 -13 89 9 183 84 207 164 21 71 6 85 -25 24z"/>
<path d="M4108 715 c-62 -41 -65 -67 -5 -41 20 8 40 23 46 34 21 40 12 41 -41
7z"/>
<path d="M341 629 c41 -58 126 -93 175 -70 38 17 28 28 -31 33 -38 3 -69 14
-105 36 -28 18 -54 32 -56 32 -3 0 5 -14 17 -31z"/>
</g>
</svg>
