<svg width="476" height="339" viewBox="0 0 476 339" fill="none" xmlns="http://www.w3.org/2000/svg">
<path d="M230.343 0.0724084C239.308 0.409078 243.552 5.30565 244.072 15.8737C255.516 21.0323 267.115 26.3377 278.817 31.4063C279.889 31.8707 281.805 31.1382 283.011 30.4238C292.538 24.7792 302.277 28.5005 305.419 39.152C305.784 40.3889 306.28 42.0264 305.782 43.0043C303.347 47.7958 307.035 49.9156 309.695 52.3163C313.212 55.4891 317.047 58.3059 320.649 61.3878C324.276 64.4909 327.785 67.7313 331.328 70.896C340.777 67.5546 345.911 68.9639 350.65 75.2269C355.427 81.5402 352.839 92.3505 344.179 96.0815C342.797 96.677 341.285 98.4109 340.996 99.8521C339.75 106.05 338.786 112.319 338.085 118.602C337.927 120.011 338.829 122.114 339.952 122.994C346.355 128.016 348.032 135.9 343.684 142.561C340.23 147.851 331.77 151.569 324.515 146.335C323.864 145.865 322.849 145.079 322.392 145.288C318.892 146.893 315.532 148.801 312.043 150.433C308.333 152.169 305.245 153.806 305.737 159.031C306.256 164.547 301.814 167.983 297.669 169.762C294.434 171.15 293.624 173.257 293.178 175.639C291.532 184.431 290.121 193.278 289.032 202.154C288.841 203.715 290.248 205.919 291.557 207.141C297.68 212.856 298.409 219.768 294.305 226.046C290.211 232.307 281.038 233.945 274.626 230.026C268.162 226.075 267.005 217.346 271.927 208.33C265.34 197.2 258.676 185.938 252.027 174.704C243.653 175.977 237.118 171.74 234.479 163.409C229.82 162.64 225.192 161.527 220.515 161.262C218.376 161.141 215.523 162.091 214.065 163.595C209.511 168.288 204.369 170.077 198.216 168.013C193.003 166.264 188.83 161.954 189.561 156.939C190.968 147.277 182.628 146.411 178.367 141.751C175.165 138.251 172.109 138.582 168.559 140.185C163.692 142.383 159.412 140.671 156.022 137.535C152.577 134.349 150.403 130.122 151.853 125.033C152.632 122.298 153.528 119.597 154.448 116.637C149.26 107.857 143.822 98.6533 138.169 89.0857C137.061 89.0857 135.57 89.1468 134.085 89.0755C125.954 88.685 120.226 83.1073 120.827 74.2547C121.307 67.1985 128.024 60.5693 135.183 61.2107C138.394 61.4984 139.902 60.7009 141.639 57.9976C147.431 48.9865 153.654 40.2529 159.73 31.387C154.054 21.3039 156.994 11.7244 166.779 8.67306C173.087 6.70568 177.806 9.25432 182.138 13.7118C183.438 15.0495 185.956 16.1167 187.751 15.9051C196.306 14.8964 204.823 13.5123 213.3 11.9725C214.624 11.732 216.203 10.2256 216.766 8.91811C219.48 2.61086 223.919 -0.527049 230.343 0.0724084ZM317.605 137.851C318.231 134.387 318.856 130.923 319.527 127.206C310.057 117.746 300.303 108.185 290.778 98.4014C286.64 94.151 282.899 89.6633 276.076 93.9093C271.838 106.243 267.458 118.989 263.153 131.52C269.162 135.908 274.717 140.146 280.501 144.047C281.795 144.92 283.895 144.851 285.61 144.792C288.854 144.681 292.878 142.899 295.175 144.231C301.772 148.056 306.53 144.729 311.655 141.725C313.467 140.663 315.224 139.507 317.605 137.851ZM159.929 109.662C163.076 114.613 167.979 114.598 170.759 109.649C172.496 106.555 174.279 103.487 176.051 100.413C182.09 89.9322 188.134 79.4541 194.787 67.9144C192.389 67.5036 190.704 66.7572 189.209 67.0343C180.627 68.6247 171.933 69.921 163.59 72.3818C157.133 74.2865 148.022 72.8699 146.526 82.9874C146.315 84.4096 146.107 86.1832 146.742 87.3225C150.833 94.6532 155.159 101.852 159.929 109.662ZM264 72.0448C266.543 70.8925 265.73 69.7776 264.374 67.9718C254.242 54.4893 244.266 40.8908 234.22 27.3001C232.896 27.5525 231.411 28.2567 230.116 28.0015C226.608 27.3102 224.977 29.3794 223.593 31.8978C220.866 36.8601 218.149 41.8321 215.627 46.8992C215.166 47.8258 215.409 49.2996 215.754 50.3851C216.282 52.0468 217.309 53.5453 217.894 55.1946C218.849 57.8833 220.202 59.4957 223.336 60.3524C236.696 64.005 249.929 68.1237 264 72.0448ZM222.345 86.0591C224.114 89.8727 225.803 93.7265 227.704 97.4734C228.225 98.5017 229.235 99.6416 230.268 99.9851C233.578 101.086 237.005 101.837 240.458 102.742C247.447 97.1598 254.608 91.4827 261.719 85.7428C264.687 83.3462 264.137 80.4308 260.361 79.3244C246.434 75.2433 232.473 71.2743 218.494 67.3752C217.606 67.1275 216.298 67.6192 215.496 68.1975C215.166 68.4358 215.486 69.882 215.801 70.661C217.797 75.5929 219.875 80.4918 222.345 86.0591ZM146.318 65.1537C145.92 67.5904 146.532 68.079 149.149 67.4402C161.229 64.4911 173.395 61.8914 185.501 59.0443C187.361 58.6069 189.992 57.9855 190.649 56.6521C191.841 54.2355 192.674 51.4434 189.439 48.9037C186.13 46.307 183.172 42.9714 180.891 39.4249C177.077 33.4945 171.627 36.6537 166.838 36.2409C166.244 36.1897 165.416 37.3771 164.9 38.1303C158.863 46.9441 152.865 55.7847 146.318 65.1537ZM328.624 121.073C329.033 120.67 329.734 120.314 329.807 119.857C330.88 113.115 332.094 106.381 332.724 99.5936C332.889 97.8222 331.383 95.7349 330.264 94.0448C328.751 91.7602 326.87 89.7189 324.861 87.2162C313.677 86.2609 301.887 85.2539 290.003 84.2388C290.069 85.0741 289.966 85.5162 290.138 85.694C301.429 97.4034 312.711 109.121 324.128 120.707C324.803 121.393 326.569 121.005 328.624 121.073ZM259.938 172.536C266.447 183.168 272.956 193.8 279.465 204.431C282.309 193.585 284.133 183.25 285.772 172.887C285.944 171.8 285.37 170.126 284.547 169.439C281.984 167.301 279.134 165.506 276.396 163.579C274.414 163.086 271.015 163.058 267.616 163.093C262.614 163.143 259.918 166.185 259.938 172.536ZM245.434 28.1419C253.682 39.3981 262.224 50.4561 270.022 62.0154C272.846 66.2011 276.143 65.3494 279.374 64.6493C281.677 64.1503 282.75 54.28 281.633 52.1954C280.075 49.2856 279.249 45.9921 277.82 43.0014C277.007 41.3005 275.95 39.2125 274.426 38.4446C268.671 35.545 262.68 33.1142 256.777 30.5088C252.231 28.5023 247.684 26.4972 243.138 24.4915C242.984 24.7108 242.83 24.9301 242.676 25.1494C243.422 25.98 244.168 26.8107 245.434 28.1419ZM218.36 22.092C215.398 18.1238 211.732 20.711 208.378 21.1231C201.278 21.9956 194.187 22.9764 187.129 24.132C184.094 24.6288 182.389 28.8074 184.256 30.9083C188.313 35.472 192.497 39.9249 196.693 44.3622C198.053 45.7996 207.451 45.6494 208.318 43.9831C211.958 36.9803 215.337 29.8412 218.36 22.092ZM301.861 56.5479C298.678 53.6574 291.73 54.6634 290.247 58.3649C289.111 61.1979 288.252 64.1513 287.426 67.0951C286.819 69.2556 291.204 75.7993 293.379 76.0716C299.028 76.7786 304.675 77.5426 310.344 78.0467C315.441 78.4999 320.566 78.6382 325.679 78.9154C325.926 78.4734 326.173 78.0315 326.42 77.5895C318.425 70.734 310.429 63.8784 301.861 56.5479ZM197.868 78.6024C190.44 91.4912 183.011 104.38 175.012 118.259C184.219 121.363 191.77 116.605 199.453 116.013C199.453 102.592 199.453 89.6564 199.453 76.0619C198.851 77.196 198.621 77.6296 197.868 78.6024ZM221.371 136.104C218.45 141.329 211.501 145.635 217.519 152.581C222.387 153.412 227.183 154.228 231.977 155.05C236.145 155.765 240.484 150.868 239.179 146.819C237.45 141.456 235.81 136.047 233.677 130.844C233.149 129.556 230.036 127.887 229.531 128.269C226.741 130.383 224.389 133.076 221.371 136.104ZM266.933 95.7927C267.2 94.6301 267.467 93.4675 267.983 91.2198C259.277 98.0413 251.718 103.964 245.304 108.989C242.338 119.884 250.25 122.191 256.434 126.273C259.956 116.261 263.416 106.424 266.933 95.7927ZM215.94 91.5275C213.53 86.2071 211.12 80.8867 208.71 75.5663C208.506 75.6546 208.301 75.7429 208.097 75.8311C208.097 88.5076 208.097 101.184 208.097 114.25C211.18 113.693 213.984 113.187 216.789 112.68C222.258 105.624 220.237 98.8643 215.94 91.5275ZM182.076 127.383C177.98 129.91 177.883 131.406 181.548 134.047C185.102 136.609 188.613 139.23 192.123 141.853C194.81 143.86 198.366 143.351 198.765 140.563C199.534 135.186 199.751 129.73 200.203 124.24C193.723 125.316 188.292 126.218 182.076 127.383ZM265.087 155.086C269.532 154.846 273.976 154.607 278.421 154.367C275.816 150.967 272.873 148.802 269.929 146.639C266.842 144.371 263.753 142.104 260.307 139.573C259.281 142.677 258.36 145.226 257.602 147.823C256.833 150.457 261.36 155.332 265.087 155.086ZM207.878 134.359C207.878 136.397 207.878 138.435 207.878 141.597C211.977 135.597 215.329 130.683 218.689 125.775C220.767 122.738 219.813 121.044 216.299 121.156C213.59 121.243 210.9 121.953 207.878 122.438C207.878 126.161 207.878 129.793 207.878 134.359ZM241.953 130.557C244.057 136.143 246.162 141.73 248.744 148.587C250.42 143.911 251.727 140.829 252.568 137.625C252.883 136.421 252.586 134.36 251.756 133.674C248.479 130.969 244.88 128.654 240.62 125.644C241.249 127.702 241.566 128.742 241.953 130.557Z" fill="#F6AE84"/>
<path d="M230.343 0.0724084C239.308 0.409078 243.552 5.30565 244.072 15.8737C255.516 21.0323 267.115 26.3377 278.817 31.4063C279.889 31.8707 281.805 31.1382 283.011 30.4238C292.538 24.7792 302.277 28.5005 305.419 39.152C305.784 40.3889 306.28 42.0264 305.782 43.0043C303.347 47.7958 307.035 49.9156 309.695 52.3163C313.212 55.4891 317.047 58.3059 320.649 61.3878C324.276 64.4909 327.785 67.7313 331.328 70.896C340.777 67.5546 345.911 68.9639 350.65 75.2269C355.427 81.5402 352.839 92.3505 344.179 96.0815C342.797 96.677 341.285 98.4109 340.996 99.8521C339.75 106.05 338.786 112.319 338.085 118.602C337.927 120.011 338.829 122.114 339.952 122.994C346.355 128.016 348.032 135.9 343.684 142.561C340.23 147.851 331.77 151.569 324.515 146.335C323.864 145.865 322.849 145.079 322.392 145.288C318.892 146.893 315.532 148.801 312.043 150.433C308.333 152.169 305.245 153.806 305.737 159.031C306.256 164.547 301.814 167.983 297.669 169.762C294.434 171.15 293.624 173.257 293.178 175.639C291.532 184.431 290.121 193.278 289.032 202.154C288.841 203.715 290.248 205.919 291.557 207.141C297.68 212.856 298.409 219.768 294.305 226.046C290.211 232.307 281.038 233.945 274.626 230.026C268.162 226.075 267.005 217.346 271.927 208.33C265.34 197.2 258.676 185.938 252.027 174.704C243.653 175.977 237.118 171.74 234.479 163.409C229.82 162.64 225.192 161.527 220.515 161.262C218.376 161.141 215.523 162.091 214.065 163.595C209.511 168.288 204.369 170.077 198.216 168.013C193.003 166.264 188.83 161.954 189.561 156.939C190.968 147.277 182.628 146.411 178.367 141.751C175.165 138.251 172.109 138.582 168.559 140.185C163.692 142.383 159.412 140.671 156.022 137.535C152.577 134.349 150.403 130.122 151.853 125.033C152.632 122.298 153.528 119.597 154.448 116.637C149.26 107.857 143.822 98.6533 138.169 89.0857C137.061 89.0857 135.57 89.1468 134.085 89.0755C125.954 88.685 120.226 83.1073 120.827 74.2547C121.307 67.1985 128.024 60.5693 135.183 61.2107C138.394 61.4984 139.902 60.7009 141.639 57.9976C147.431 48.9865 153.654 40.2529 159.73 31.387C154.054 21.3039 156.994 11.7244 166.779 8.67306C173.087 6.70568 177.806 9.25432 182.138 13.7118C183.438 15.0495 185.956 16.1167 187.751 15.9051C196.306 14.8964 204.823 13.5123 213.3 11.9725C214.624 11.732 216.203 10.2256 216.766 8.91811C219.48 2.61086 223.919 -0.527049 230.343 0.0724084ZM317.605 137.851C318.231 134.387 318.856 130.923 319.527 127.206C310.057 117.746 300.303 108.185 290.778 98.4014C286.64 94.151 282.899 89.6633 276.076 93.9093C271.838 106.243 267.458 118.989 263.153 131.52C269.162 135.908 274.717 140.146 280.501 144.047C281.795 144.92 283.895 144.851 285.61 144.792C288.854 144.681 292.878 142.899 295.175 144.231C301.772 148.056 306.53 144.729 311.655 141.725C313.467 140.663 315.224 139.507 317.605 137.851ZM159.929 109.662C163.076 114.613 167.979 114.598 170.759 109.649C172.496 106.555 174.279 103.487 176.051 100.413C182.09 89.9322 188.134 79.4541 194.787 67.9144C192.389 67.5036 190.704 66.7572 189.209 67.0343C180.627 68.6247 171.933 69.921 163.59 72.3818C157.133 74.2865 148.022 72.8699 146.526 82.9874C146.315 84.4096 146.107 86.1832 146.742 87.3225C150.833 94.6532 155.159 101.852 159.929 109.662ZM264 72.0448C266.543 70.8925 265.73 69.7776 264.374 67.9718C254.242 54.4893 244.266 40.8908 234.22 27.3001C232.896 27.5525 231.411 28.2567 230.116 28.0015C226.608 27.3102 224.977 29.3794 223.593 31.8978C220.866 36.8601 218.149 41.8321 215.627 46.8992C215.166 47.8258 215.409 49.2996 215.754 50.3851C216.282 52.0468 217.309 53.5453 217.894 55.1946C218.849 57.8833 220.202 59.4957 223.336 60.3524C236.696 64.005 249.929 68.1237 264 72.0448ZM222.345 86.0591C224.114 89.8727 225.803 93.7265 227.704 97.4734C228.225 98.5017 229.235 99.6416 230.268 99.9851C233.578 101.086 237.005 101.837 240.458 102.742C247.447 97.1598 254.608 91.4827 261.719 85.7428C264.687 83.3462 264.137 80.4308 260.361 79.3244C246.434 75.2433 232.473 71.2743 218.494 67.3752C217.606 67.1275 216.298 67.6192 215.496 68.1975C215.166 68.4358 215.486 69.882 215.801 70.661C217.797 75.5929 219.875 80.4918 222.345 86.0591ZM146.318 65.1537C145.92 67.5904 146.532 68.079 149.149 67.4402C161.229 64.4911 173.395 61.8914 185.501 59.0443C187.361 58.6069 189.992 57.9855 190.649 56.6521C191.841 54.2355 192.674 51.4434 189.439 48.9037C186.13 46.307 183.172 42.9714 180.891 39.4249C177.077 33.4945 171.627 36.6537 166.838 36.2409C166.244 36.1897 165.416 37.3771 164.9 38.1303C158.863 46.9441 152.865 55.7847 146.318 65.1537ZM328.624 121.073C329.033 120.67 329.734 120.314 329.807 119.857C330.88 113.115 332.094 106.381 332.724 99.5936C332.889 97.8222 331.383 95.7349 330.264 94.0448C328.751 91.7602 326.87 89.7189 324.861 87.2162C313.677 86.2609 301.887 85.2539 290.003 84.2388C290.069 85.0741 289.966 85.5162 290.138 85.694C301.429 97.4034 312.711 109.121 324.128 120.707C324.803 121.393 326.569 121.005 328.624 121.073ZM259.938 172.536C266.447 183.168 272.956 193.8 279.465 204.431C282.309 193.585 284.133 183.25 285.772 172.887C285.944 171.8 285.37 170.126 284.547 169.439C281.984 167.301 279.134 165.506 276.396 163.579C274.414 163.086 271.015 163.058 267.616 163.093C262.614 163.143 259.918 166.185 259.938 172.536ZM245.434 28.1419C253.682 39.3981 262.224 50.4561 270.022 62.0154C272.846 66.2011 276.143 65.3494 279.374 64.6493C281.677 64.1503 282.75 54.28 281.633 52.1954C280.075 49.2856 279.249 45.9921 277.82 43.0014C277.007 41.3005 275.95 39.2125 274.426 38.4446C268.671 35.545 262.68 33.1142 256.777 30.5088C252.231 28.5023 247.684 26.4972 243.138 24.4915C242.984 24.7108 242.83 24.9301 242.676 25.1494C243.422 25.98 244.168 26.8107 245.434 28.1419ZM218.36 22.092C215.398 18.1238 211.732 20.711 208.378 21.1231C201.278 21.9956 194.187 22.9764 187.129 24.132C184.094 24.6288 182.389 28.8074 184.256 30.9083C188.313 35.472 192.497 39.9249 196.693 44.3622C198.053 45.7996 207.451 45.6494 208.318 43.9831C211.958 36.9803 215.337 29.8412 218.36 22.092ZM301.861 56.5479C298.678 53.6574 291.73 54.6634 290.247 58.3649C289.111 61.1979 288.252 64.1513 287.426 67.0951C286.819 69.2556 291.204 75.7993 293.379 76.0716C299.028 76.7786 304.675 77.5426 310.344 78.0467C315.441 78.4999 320.566 78.6382 325.679 78.9154C325.926 78.4734 326.173 78.0315 326.42 77.5895C318.425 70.734 310.429 63.8784 301.861 56.5479ZM197.868 78.6024C190.44 91.4912 183.011 104.38 175.012 118.259C184.219 121.363 191.77 116.605 199.453 116.013C199.453 102.592 199.453 89.6564 199.453 76.0619C198.851 77.196 198.621 77.6296 197.868 78.6024ZM221.371 136.104C218.45 141.329 211.501 145.635 217.519 152.581C222.387 153.412 227.183 154.228 231.977 155.05C236.145 155.765 240.484 150.868 239.179 146.819C237.45 141.456 235.81 136.047 233.677 130.844C233.149 129.556 230.036 127.887 229.531 128.269C226.741 130.383 224.389 133.076 221.371 136.104ZM266.933 95.7927C267.2 94.6301 267.467 93.4675 267.983 91.2198C259.277 98.0413 251.718 103.964 245.304 108.989C242.338 119.884 250.25 122.191 256.434 126.273C259.956 116.261 263.416 106.424 266.933 95.7927ZM215.94 91.5275C213.53 86.2071 211.12 80.8867 208.71 75.5663C208.506 75.6546 208.301 75.7429 208.097 75.8311C208.097 88.5076 208.097 101.184 208.097 114.25C211.18 113.693 213.984 113.187 216.789 112.68C222.258 105.624 220.237 98.8643 215.94 91.5275ZM182.076 127.383C177.98 129.91 177.883 131.406 181.548 134.047C185.102 136.609 188.613 139.23 192.123 141.853C194.81 143.86 198.366 143.351 198.765 140.563C199.534 135.186 199.751 129.73 200.203 124.24C193.723 125.316 188.292 126.218 182.076 127.383ZM265.087 155.086C269.532 154.846 273.976 154.607 278.421 154.367C275.816 150.967 272.873 148.802 269.929 146.639C266.842 144.371 263.753 142.104 260.307 139.573C259.281 142.677 258.36 145.226 257.602 147.823C256.833 150.457 261.36 155.332 265.087 155.086ZM207.878 134.359C207.878 136.397 207.878 138.435 207.878 141.597C211.977 135.597 215.329 130.683 218.689 125.775C220.767 122.738 219.813 121.044 216.299 121.156C213.59 121.243 210.9 121.953 207.878 122.438C207.878 126.161 207.878 129.793 207.878 134.359ZM241.953 130.557C244.057 136.143 246.162 141.73 248.744 148.587C250.42 143.911 251.727 140.829 252.568 137.625C252.883 136.421 252.586 134.36 251.756 133.674C248.479 130.969 244.88 128.654 240.62 125.644C241.249 127.702 241.566 128.742 241.953 130.557Z" fill="#F6AE84"/>
<path d="M236.877 311.126C236.877 307.651 236.877 304.667 236.877 301.619C234.551 300.986 232.415 300.404 230.084 299.77C230.084 298.03 230.084 296.275 230.084 294.087C232.322 294.087 234.399 294.087 236.414 294.087C238.79 274.064 241.897 271.231 258.7 273.566C258.7 275.155 258.7 276.771 258.7 277.519C254.714 279.473 250.231 280.49 247.708 283.28C245.675 285.527 246.01 289.916 245.144 294.081C251.703 294.081 257.316 294.238 262.904 293.94C263.944 293.885 265.548 292.118 265.753 290.944C266.452 286.921 266.645 282.81 267.061 278.408C269.408 278.408 271.821 278.408 274.691 278.408C274.691 283.334 274.691 288.409 274.691 293.938C278.854 293.938 282.601 293.938 286.603 293.938C286.603 296.12 286.603 297.849 286.603 300.028C282.839 300.028 279.086 300.028 274.878 300.028C274.878 309.572 274.812 318.679 274.912 327.784C274.95 331.255 277.034 332.19 280.099 331.075C281.427 330.592 282.643 329.806 284.638 328.785C285.669 330.573 288.069 333.159 287.531 334.149C286.554 335.949 283.958 337.479 281.804 337.887C278.593 338.495 275.129 338.393 271.865 337.932C267.796 337.356 264.956 332.585 264.901 326.814C264.817 318.16 264.879 309.505 264.879 300.468C258.729 300.468 252.665 300.468 246.14 300.468C246.14 312.282 246.14 324.34 246.14 336.74C242.975 336.74 240.249 336.74 236.877 336.74C236.877 328.468 236.877 320.043 236.877 311.126Z" fill="#F6AE84"/>
<path d="M329.138 299.698C331.959 307.854 334.576 315.65 337.573 324.582C340.975 313.617 344.089 303.579 347.281 293.288C350.166 293.288 353.288 293.288 356.545 293.288C351.854 307.896 347.18 322.452 342.509 336.996C339.372 336.996 336.553 336.996 333.365 336.996C330.057 327.099 326.714 317.098 322.929 305.774C319.942 314.476 317.355 321.964 314.803 329.464C312.114 337.363 312.129 337.368 303.311 336.879C298.51 322.468 293.685 307.982 288.838 293.431C298.255 292.503 298.284 292.493 300.883 300.767C303.284 308.413 305.615 316.081 308.264 324.672C311.378 315.041 314.343 306.5 316.855 297.828C318.065 293.649 320.463 292.656 324.397 293.031C328.557 293.427 328.736 296.298 329.138 299.698Z" fill="#F6AE84"/>
<path d="M77.8776 289.749C77.8776 284.134 77.8776 278.98 77.8776 273.456C80.7346 273.456 83.4614 273.456 86.5414 273.456C86.5414 294.301 86.5414 315.359 86.5414 336.752C84.2791 336.752 81.8784 336.752 79.0612 336.752C78.9715 335.492 78.8708 334.076 78.7446 332.301C78.0863 332.732 77.4973 332.973 77.103 333.396C71.4958 339.41 64.4153 339.292 57.5494 337.133C49.8916 334.725 47.1163 328.213 46.9236 320.657C46.7446 313.64 46.1756 306.568 50.2498 300.11C53.3596 295.181 57.4918 292.114 63.2778 292.179C68.0699 292.232 72.8529 293.099 77.8776 293.631C77.8776 293.091 77.8776 291.65 77.8776 289.749ZM72.8297 329.643C76.5653 327.989 78.0629 325.111 77.9164 321.058C77.7488 316.42 77.8969 311.772 77.8726 307.128C77.8433 301.499 72.2125 297.756 66.555 298.69C57.5591 300.177 54.2221 312.327 56.6347 321.383C59.2248 331.106 63.5846 333.507 72.8297 329.643Z" fill="#F6AE84"/>
<path d="M182.626 317.517C181.093 304.399 189.447 291.198 203.426 291.91C218.665 292.686 225.689 299.294 225.959 314.619C226.09 322.063 224.519 328.398 218.879 333.702C210.436 341.642 191.661 339.549 186.122 329.417C184.254 326 183.88 321.766 182.626 317.517ZM215.511 307.233C212.734 298.778 202.409 294.551 195.454 303.113C190.876 308.748 191.281 315.36 192.838 322.061C193.824 326.302 196.187 329.499 200.086 330.958C204.575 332.639 208.904 331.738 212.374 328.067C217.979 322.137 217.515 315.173 215.511 307.233Z" fill="#F6AE84"/>
<path d="M435.463 327.206C432.171 317.257 431.025 307.579 438.026 299.183C440.445 296.281 444.268 294.051 447.893 292.752C456.888 289.529 465.859 292.059 470.787 299.874C473.306 303.869 473.586 309.277 475.124 314.952C463.583 314.952 453.372 314.952 443.216 314.952C441.873 321.838 444.61 326.597 449.524 329.848C454.831 333.359 460.404 331.296 465.429 328.728C467.965 327.432 469.736 325.625 471.923 329.077C474.081 332.484 471.939 333.712 469.444 335.018C460.183 339.865 442.167 341.057 435.463 327.206ZM464.526 305.242C462.313 300.942 459.069 297.914 453.965 298.622C447.112 299.573 444.179 302.793 443.045 309.825C450.59 309.825 458.094 309.825 465.765 309.825C465.426 308.417 465.133 307.198 464.526 305.242Z" fill="#F6AE84"/>
<path d="M13.1167 315.086C11.7241 315.678 10.1518 316.129 9.98854 316.884C8.29066 324.737 17.0113 332.999 24.9859 331.061C27.913 330.35 30.6205 328.693 33.5561 328.074C35.187 327.73 37.6109 328.069 38.7308 329.114C40.3288 330.605 40.4623 332.472 37.8242 334.208C29.7293 339.535 11.3147 341.181 3.98866 329.737C-3.0201 318.788 -1.6108 296.676 14.8273 292.527C23.9043 290.236 31.9945 292.226 37.6311 299.381C41.2133 303.928 41.0447 309.29 40.73 315.086C31.4943 315.086 22.5427 315.086 13.1167 315.086ZM21.3743 310.086C25.1357 310.086 28.897 310.086 32.7921 310.086C30.3368 301.645 26.477 297.739 21.4153 298.197C15.2737 298.752 11.1528 302.894 10.0108 310.086C13.5153 310.086 16.9557 310.086 21.3743 310.086Z" fill="#F6AE84"/>
<path d="M382.394 335.89C376.919 336.702 371.725 338.168 366.698 337.731C362.42 337.359 359.551 333.749 358.873 329.071C358.033 323.283 359.47 318.244 365.232 316.163C371.675 313.837 378.469 312.479 385.562 310.578C386.507 303.807 384.682 299.423 378.927 298.855C375.761 298.543 371.942 299.852 369.178 301.619C364.943 304.327 362.617 303.625 360.853 298.914C364.037 294.417 368.772 292.676 374.084 292.097C389.964 290.365 395.837 297.31 394.961 312.355C394.49 320.441 394.877 328.578 394.877 337.953C391.5 336.853 388.876 335.999 386.253 335.144C386.322 334.533 386.391 333.922 386.46 333.311C385.223 334.114 383.986 334.917 382.394 335.89ZM382.093 318.08C377.24 317.866 372.633 318.531 369.156 322.345C366.417 325.348 367.457 329.709 371.212 331.05C375.97 332.749 379.88 330.459 383.509 327.882C387.54 325.019 385.611 320.931 385.595 316.877C384.425 317.396 383.699 317.718 382.093 318.08Z" fill="#F6AE84"/>
<path d="M135.878 312.087C135.868 320.242 135.86 327.898 135.838 335.554C135.837 335.865 135.694 336.176 135.544 336.785C133.213 336.785 130.803 336.785 128.094 336.785C127.989 335.814 127.871 334.715 127.721 333.326C127.09 333.735 126.523 334.015 126.062 334.417C120.821 338.981 114.448 338.445 108.3 337.966C103.147 337.565 98.1186 331.189 97.9544 324.885C97.6826 314.446 97.8804 303.994 97.8804 293.319C100.999 293.319 103.724 293.319 106.878 293.319C106.878 302.457 106.837 311.403 106.891 320.348C106.931 327.081 109.058 330.028 114.688 331.453C119.525 332.677 126.858 327.115 126.871 322.165C126.895 312.694 126.878 303.224 126.878 293.42C129.802 293.42 132.53 293.42 135.878 293.42C135.878 299.393 135.878 305.49 135.878 312.087Z" fill="#F6AE84"/>
<path d="M170.994 335.452C160.743 340.347 149.969 339.034 144.012 332.478C146.071 327.413 147.462 326.761 152.328 329.29C156.341 331.375 160.312 333.327 164.44 330.066C165.927 328.892 167.599 326.887 167.627 325.235C167.654 323.635 166.024 321.391 164.5 320.518C161.754 318.947 158.564 318.13 155.524 317.105C147.334 314.342 143.686 309.32 144.902 302.37C146.003 296.079 151.666 291.881 159.47 292.172C163.457 292.321 167.678 292.696 171.321 294.152C177.734 296.714 177.607 297.429 173.22 300.993C167.692 300.258 163.263 299.178 158.878 299.333C157.162 299.394 154.452 302.08 154.212 303.845C154.001 305.396 156.289 307.808 158.048 308.975C160.272 310.451 163.008 311.341 165.645 311.982C178.979 315.224 180.301 327.83 170.994 335.452Z" fill="#F6AE84"/>
<path d="M405.878 330.982C405.878 318.205 405.878 305.915 405.878 293.357C408.598 293.357 411.007 293.357 413.795 293.357C413.795 295.103 413.795 296.822 413.795 298.541C417.693 291.855 423.765 290.907 430.076 292.562C431.471 292.928 431.753 297.543 432.704 300.725C430.496 300.893 429.233 301.158 428 301.056C420.174 300.408 414.925 305.16 414.886 313.092C414.847 320.892 414.878 328.692 414.878 336.787C411.887 336.787 409.16 336.787 405.878 336.787C405.878 335.017 405.878 333.243 405.878 330.982Z" fill="#F6AE84"/>
</svg>
