<svg width="630" height="509" viewBox="0 0 630 509" fill="none" xmlns="http://www.w3.org/2000/svg">
<path fill-rule="evenodd" clip-rule="evenodd" d="M418.35 38.3112C418.962 28.9448 418.256 19.4932 416.259 10.3217L416.216 10.1263L416.216 10.126C415.877 8.57531 415.529 6.98025 415.841 5.42829C416.532 1.99582 420.344 -0.0702347 423.845 0.00182515C427.345 0.073885 430.588 1.74489 433.686 3.37676C448.541 11.2026 463.665 19.2261 475.361 31.2729C475.728 41.0257 473.43 50.6503 471.161 60.1514L470.948 61.0444C461.475 100.755 453.719 140.876 447.707 181.256C447.13 185.126 446.038 189.692 442.367 191.047C439.734 192.02 436.672 190.777 434.801 188.684C432.93 186.591 432.036 183.813 431.412 181.076C429.873 174.323 429.688 167.265 430.871 160.441C431.594 156.268 432.817 152.209 434.04 148.149L434.04 148.148L434.04 148.148L434.04 148.148L434.04 148.147L434.04 148.147L434.04 148.147L434.04 148.146C435.138 144.502 436.236 140.857 436.973 137.127C437.71 133.398 438.082 129.606 438.443 125.821C440.36 105.694 441.986 85.5395 443.321 65.3655C443.509 62.5147 443.681 59.5743 442.747 56.8741C441.086 52.0717 436.248 49.0363 431.361 47.6446C430.518 47.4047 429.663 47.2006 428.807 46.9967C426.816 46.5219 424.826 46.0475 423.01 45.122C420.413 43.799 418.16 41.2195 418.35 38.3112ZM427.427 37.5414C434.335 38.9992 441.087 41.2005 447.526 44.095C448.823 44.6777 450.187 45.36 450.887 46.597C451.459 47.6073 451.492 48.824 451.509 49.985C451.712 63.6203 451.755 77.2917 450.311 90.8518C449.446 98.9717 448.051 107.021 446.657 115.069C446.215 117.616 445.774 120.164 445.349 122.713C443.248 135.33 441.557 148.014 440.28 160.74C439.353 169.974 438.674 179.518 441.546 188.342C443.02 188.073 443.587 186.298 443.866 184.826L470.41 44.9186C471.053 41.5288 471.695 38.024 470.938 34.658C469.611 28.7649 464.381 24.6673 459.337 21.3425C449.629 14.942 439.295 9.49072 428.531 5.09173C427.635 15.8818 427.267 26.7155 427.427 37.5414ZM441.077 129.426C445.937 104.476 448.133 79.0069 447.615 53.5926C447.576 51.6731 447.473 49.6103 446.298 48.0912C445.438 46.9781 444.124 46.3261 442.84 45.751C438.018 43.5913 432.949 41.9841 427.764 40.9712C426.263 40.678 424.056 40.9957 424.122 42.5236L442.76 50.2252C443.853 50.677 445.018 51.1879 445.636 52.1966C446.241 53.186 446.182 54.4288 446.103 55.5863L441.077 129.426ZM423.734 2.62371C422.197 1.60511 419.977 2.65511 419.121 4.28784C418.265 5.92057 418.396 7.87517 418.59 9.70839C418.874 12.3981 419.249 15.0892 419.624 17.7807C420.663 25.248 421.704 32.7182 420.82 40.1699C422.229 40.6536 423.803 39.6602 424.486 38.3361C425.17 37.012 425.188 35.4566 425.191 33.9664L425.238 7.09445C425.241 5.45211 425.103 3.53119 423.734 2.62371ZM437.534 187.736C436.688 181.095 436.466 174.375 436.873 167.693C437.09 164.12 437.487 160.559 437.883 156.999L437.883 156.999C438.407 152.291 438.931 147.585 439.041 142.852C435.17 154.374 433.708 166.699 434.777 178.806C435.055 181.955 435.571 185.258 437.534 187.736ZM439.664 136.046C440.287 135.767 440.549 134.892 440.182 134.317C439.549 134.629 439.28 135.512 439.632 136.123L439.664 136.046ZM433.876 78.3422C403.07 59.3437 368.237 47.961 333.402 38.139C322.266 34.9991 311.038 31.9905 299.54 30.7024C265.471 26.8857 230.933 38.6403 202.605 57.9474C191.244 65.6907 180.283 75.2153 175.374 88.0581C171.732 97.587 171.757 108.077 172.108 118.272C173.32 153.434 177.831 188.389 182.338 223.282C185.861 222.646 186.209 217.773 185.699 214.23C181.013 181.69 178.386 148.853 177.838 115.982C177.684 106.765 177.733 97.3148 180.922 88.6655C186.697 73.0084 201.59 62.7687 216.203 54.7103C234.609 44.5605 254.617 36.0284 275.631 35.5755C301.086 35.0269 325.214 46.3181 347.45 58.7189C359.847 65.6324 372.416 73.3526 380.303 85.1544C387.464 95.8707 390.066 108.931 391.945 121.682C397.908 162.151 398.127 203.22 398.334 244.126C398.342 245.781 398.241 247.677 396.945 248.706C396.058 249.409 394.848 249.497 393.718 249.556L352.19 251.718C371.541 257.281 393.008 255.087 410.833 245.723L456.977 221.482C461.283 219.22 465.728 216.843 468.697 212.989C472.782 207.685 473.367 200.549 473.56 193.857C474.271 169.14 471.8 144.334 466.225 120.244C468.158 146.304 468.426 172.487 467.027 198.581C466.789 203.037 466.431 207.712 464.008 211.459C461.42 215.462 456.92 217.729 452.633 219.812L402.835 244.016C404.896 205.323 403.298 166.437 398.068 128.045C396.309 115.132 394.065 102.038 388.156 90.4228C374.19 62.973 343.28 49.3945 314.712 37.8886C357.423 50.3842 400.622 63.0864 439.046 85.5342C439.546 82.433 436.55 79.9911 433.876 78.3422ZM593.023 196.451C595.236 202.157 598.349 208.24 604.071 210.415C605.426 210.52 606.236 208.722 605.791 207.438C605.419 206.365 604.546 205.584 603.688 204.816C603.625 204.76 603.563 204.705 603.501 204.649L603.406 204.563L603.331 204.495L603.284 204.452C603.251 204.422 603.218 204.392 603.186 204.362C599.545 200.979 597.758 196.198 595.997 191.489L595.996 191.485C595.648 190.555 595.302 189.628 594.942 188.714C592.76 183.176 589.341 177.391 583.623 175.736C580.101 174.717 576.33 175.477 572.774 176.374C552.685 181.443 533.699 190.838 517.484 203.735C510.43 209.345 503.293 217.299 504.975 226.153C505.611 229.497 507.465 232.466 509.335 235.31C512.894 240.721 516.643 246.008 520.572 251.157C522.291 253.409 524.1 255.685 526.528 257.144C530.638 259.615 535.805 259.346 540.537 258.564C564.989 254.522 585.917 239.326 605.831 224.573C606.867 223.805 607.945 222.987 608.482 221.815C609.019 220.642 608.79 219.01 607.651 218.405C606.346 217.711 604.805 218.669 603.641 219.581C585.109 234.09 565.314 248.267 542.337 253.364C537.981 254.33 533.18 254.899 529.261 252.766C526.329 251.171 524.349 248.302 522.479 245.536L510.888 228.385C509.912 226.941 508.899 225.388 508.863 223.645C508.827 221.902 510.236 220.016 511.965 220.241C528.213 222.354 544.538 223.873 560.896 224.794C562.199 224.867 563.561 224.926 564.747 224.384C566.276 223.686 567.208 222.14 568.023 220.671C574.949 208.186 580.239 194.795 583.716 180.948C588.338 184.263 590.495 189.877 592.554 195.234L592.555 195.238C592.711 195.644 592.867 196.049 593.023 196.451ZM578.722 179.852C575.627 191.433 571.048 202.616 565.132 213.041C564.14 214.789 563.039 216.589 561.305 217.604C559.099 218.896 556.354 218.653 553.813 218.369L513.34 213.853C520.055 204.98 530.031 199.221 539.997 194.273C549.432 189.589 559.117 185.411 568.998 181.762C572.126 180.607 575.408 179.488 578.722 179.852ZM355.083 426.884C356.082 436.301 357.134 445.917 361.136 454.5L354.586 396.196C354.316 393.796 354.396 390.741 356.604 389.762C358.472 411.708 361.257 433.575 364.95 455.288C365.389 457.865 361.517 459.338 359.342 457.886C357.168 456.434 356.472 453.607 355.977 451.04C352.374 432.33 350.393 413.307 350.063 394.256C345.476 395.16 342.258 399.607 341.33 404.19C340.402 408.773 341.297 413.505 342.191 418.095L350.822 462.414C352.168 469.324 353.513 476.464 352.029 483.345C346.318 457.274 341.727 430.959 338.273 404.495C294.46 431.287 238.004 436.269 190.175 417.565C179.729 413.48 169.355 408.066 162.456 399.223C157.02 392.256 154.12 383.607 152.601 374.903C147.205 343.99 158.263 312.458 173.272 284.9C173.663 284.182 174.057 283.462 174.453 282.74C179.824 272.943 185.421 262.736 184.993 251.655C184.964 250.923 184.913 250.176 184.861 249.425C184.623 245.976 184.379 242.428 186.343 239.694C188.978 244.487 189.982 250.159 189.152 255.566C234.51 253.614 279.937 253.22 325.322 254.387C325.852 256.474 322.829 257.443 320.676 257.411C278.321 256.779 235.946 257.501 193.637 259.574C192.297 259.64 190.891 259.727 189.755 260.441C188.56 261.191 187.864 262.508 187.222 263.764C175.214 287.259 163.166 311.096 157.362 336.836C154.377 350.072 153.234 364.559 159.352 376.671C161.672 381.265 164.955 385.323 168.62 388.938C188.294 408.344 217.755 414.293 245.385 413.829C263.02 413.533 280.616 410.997 297.617 406.304C315.641 401.328 333.617 393.485 345.919 379.404C353.144 371.135 358.054 361.122 362.354 351.018C370.565 331.727 376.863 311.622 381.126 291.094C383.795 291.656 383.833 295.43 383.217 298.087C375.596 330.963 366.738 366.006 341.638 388.564C318.969 408.938 287.024 415.257 256.592 416.961C239.013 417.945 221.157 417.638 204.13 413.156C187.103 408.675 170.846 399.711 160.036 385.813C163.189 397.834 173.868 406.413 184.986 411.964C214.178 426.541 248.65 425.771 280.883 420.704C302.354 417.328 324.393 411.789 341.103 397.889C355.387 386.008 364.489 369.04 371.341 351.77C378.925 332.655 384.186 312.618 386.971 292.243C388.706 291.147 389.991 294.212 389.772 296.252C386.016 331.173 372.636 365.009 351.495 393.055L355.083 426.884ZM334.782 486.599C332.92 483.454 331.721 479.918 331.286 476.288L328.609 485.357L321.856 459.6C321.332 457.602 320.057 455.102 318.036 455.531C316.072 455.948 315.852 458.644 316.144 460.631C317.616 470.623 320.422 480.417 324.465 489.673L317.283 483.37C316.933 486.371 317.723 489.49 319.458 491.962C315.717 489.207 310.699 488.268 306.215 489.484C309.419 493.936 313.77 497.556 318.73 499.898L312.661 491.427C317.567 494.258 322.706 496.685 328.01 498.673L322.868 492.225L329.221 493.986C324.36 482.926 319.407 471.444 319.524 459.364C321.365 469.191 324.059 478.859 327.566 488.222C328.16 489.809 328.82 491.45 330.087 492.575C331.353 493.701 333.41 494.125 334.737 493.071C335.768 492.252 336.069 490.838 336.302 489.542L339.164 473.672L342.307 493.353C344.69 487.334 352.441 485.825 358.915 485.785C367.463 485.732 376.075 486.673 384.665 487.613H384.666H384.666H384.666H384.666H384.667H384.667H384.667H384.668C400.153 489.306 415.566 490.991 430.404 486.826C429.968 489.12 429.206 491.352 428.147 493.433C440.12 491.69 452.234 490.925 464.331 491.149C469.44 491.243 474.564 491.512 479.688 491.781H479.688H479.689H479.689H479.69H479.69H479.69H479.691H479.691C493.238 492.492 506.785 493.203 520.057 490.687L431.968 489.913C433.622 489.817 434.89 487.893 434.326 486.335C433.762 484.777 431.557 484.11 430.224 485.094C429.358 482.34 425.463 481.115 423.176 482.878C424.502 478.79 427.124 475.134 430.57 472.566C426.681 472.357 422.731 473.548 419.604 475.872L429.079 432.02C428.278 431.331 426.942 431.794 426.35 432.67C425.764 433.536 425.699 434.639 425.637 435.684L425.635 435.717C424.748 450.691 419.468 465.378 410.618 477.489L407.143 467.434L402.162 479.444C399.904 477.696 396.702 477.255 394.056 478.328C394.732 480.896 396.786 483.056 399.317 483.86L400.495 480.702L408.277 485.914C405.303 482.798 404.658 477.699 406.763 473.94L411.472 481.839L420.599 463.787C420.651 471.035 417.544 477.886 414.499 484.463C417.809 481.871 420.654 478.688 422.858 475.109C424.986 478.878 422.662 483.931 418.961 486.175C415.259 488.418 410.682 488.54 406.357 488.357C399.76 488.078 393.111 487.25 386.471 486.422L386.471 486.422C371.559 484.563 356.689 482.709 342.523 487.1L340.481 468.266C337.361 473.904 335.408 480.185 334.782 486.599ZM423.656 487.102C423.336 486.719 423.338 486.105 423.661 485.725L423.918 485.822C424.351 484.787 426.17 484.872 426.504 485.943C425.665 486.548 424.68 486.949 423.656 487.102ZM471.783 287C461.524 281.815 449.315 283.214 437.926 284.775C434.708 285.216 431.427 285.679 428.513 287.112C425.598 288.545 423.059 291.14 422.556 294.349C394.743 290.876 368.09 278.634 347.333 259.797C342.828 255.709 338.232 249.887 340.258 244.151C340.894 242.348 342.133 240.827 343.422 239.414C353.099 228.804 366.442 222.423 379.43 216.298C364.709 217.589 350.585 224.749 340.841 235.86C338.608 238.406 336.55 241.251 335.781 244.549C333.882 252.693 340.207 260.333 346.538 265.797C366.738 283.23 392.144 294.551 418.614 297.913C420.202 298.115 420.283 300.347 420.138 301.94C419.493 309.028 423.357 315.945 428.712 320.634C434.067 325.322 440.775 328.137 447.431 330.658C468.043 338.465 489.433 344.216 511.182 347.795C512.619 348.032 514.592 347.92 514.895 346.495C509.876 343.175 503.836 341.91 497.929 340.673L497.907 340.669L497.841 340.655L497.333 340.549L496.973 340.473C481.998 337.32 467.223 333.214 452.769 328.188C446.839 326.126 440.895 323.874 435.724 320.313C430.554 316.751 426.162 311.72 424.509 305.664C423.693 302.673 424.8 298.208 427.878 298.585C440.408 300.117 453.283 301.63 465.518 298.522C468.286 297.819 471.173 296.758 472.86 294.453C474.548 292.148 474.332 288.289 471.783 287ZM440.176 295.281C435.875 294.54 431.481 294.342 427.13 294.692C429.244 290.677 434.408 289.62 438.904 289.007C448.677 287.677 458.854 286.379 468.217 289.477C468.836 289.682 469.496 289.943 469.83 290.502C470.271 291.238 469.949 292.24 469.323 292.826C468.698 293.413 467.844 293.679 467.018 293.91C458.319 296.341 449.078 296.813 440.176 295.281ZM297.844 497.857C305.043 497.655 312.284 499.247 318.735 502.447C317.011 504.925 313.545 505.272 310.528 505.387L231.678 508.379C230.956 508.29 230.82 507.174 231.332 506.656C231.844 506.138 232.644 506.072 233.371 506.036L310.344 502.282C305.897 501.874 301.557 500.338 297.844 497.857ZM146.1 237.083C144.976 242.457 149.523 248.19 154.998 248.596C146.045 262.089 129.918 268.747 114.422 273.448C104.751 276.381 94.0236 278.79 84.804 274.651C83.6598 275.35 84.8799 277.072 86.0879 277.654C95.0599 281.977 105.697 279.568 115.241 276.72C129.236 272.543 143.662 267.145 153.186 256.071C153.575 255.618 153.964 255.151 154.355 254.682L154.355 254.681L154.355 254.681C156.807 251.735 159.363 248.663 163.048 247.981C174.913 245.787 184.794 238.356 194.559 231.013L194.559 231.012L194.56 231.012L194.56 231.011L194.561 231.011C196.775 229.346 198.983 227.685 201.207 226.092C214.726 216.402 229.721 208.774 245.514 203.554C246.909 203.092 248.605 202.237 248.481 200.773C228.901 202.57 211.786 214.246 196.005 225.975L195.478 226.367C184.753 234.34 173.546 242.672 160.349 244.648C164.66 241.248 163.749 233.392 158.886 230.845C154.023 228.298 147.224 231.709 146.1 237.083ZM149.754 240.367C148.874 237.76 150.232 234.659 152.646 233.339C153.331 232.964 154.098 232.714 154.879 232.713C157.457 232.711 159.34 235.468 159.357 238.046C159.374 240.624 158.067 243.001 156.797 245.245C153.826 244.79 150.715 243.214 149.754 240.367ZM442.745 182.925C442.016 182.112 442.24 181.018 442.472 179.884C442.637 179.083 442.805 178.262 442.643 177.508C442.503 176.853 442.121 176.296 441.738 175.737C441.4 175.242 441.06 174.746 440.886 174.18C440.925 173.432 441.926 173.048 442.608 173.359C443.289 173.669 443.671 174.401 443.909 175.111C444.777 177.703 444.331 180.699 442.745 182.925ZM376.739 126.051C378.564 121.726 382.18 117.89 386.792 117.012C388.284 116.728 388.238 114.267 386.93 113.494C385.623 112.72 383.943 113.178 382.572 113.83C376.182 116.872 372.148 123.566 370.568 130.463C368.987 137.361 369.51 144.544 370.041 151.6L372.866 189.107C372.962 190.382 373.08 191.721 373.79 192.785C375.236 194.951 378.338 195.019 380.937 194.854L394.095 194.018C391.171 191.726 387.246 190.762 383.592 191.436C381.459 191.83 379.316 190.423 378.185 188.571C377.054 186.719 376.723 184.503 376.443 182.352C374.609 168.276 373.936 154.049 374.434 139.862C374.598 135.171 374.914 130.376 376.739 126.051ZM410.335 458.97C409.588 459.512 408.839 458.277 408.73 457.36C403.645 414.618 402.878 371.493 402.117 328.456L401.604 299.443C401.589 298.616 401.601 297.711 402.132 297.078C403.047 295.987 404.97 296.487 405.769 297.665C406.567 298.842 406.568 300.367 406.542 301.79C405.759 344.141 406.273 386.574 410.328 428.738C410.377 429.251 410.427 429.764 410.477 430.278V430.278C411.407 439.856 412.35 449.578 410.335 458.97ZM368.061 189.546C366.947 188.934 365.573 189.28 364.354 189.641C307.982 206.313 251.739 223.505 196.324 243.127C195.287 243.494 194.1 244.023 193.862 245.098C193.61 246.235 194.681 247.322 195.828 247.533C196.974 247.744 198.133 247.335 199.227 246.932C254.761 226.503 311.132 208.346 368.15 192.522C369.375 192.182 369.174 190.157 368.061 189.546Z" fill="#e0e"/>
<path fill-rule="evenodd" clip-rule="evenodd" d="M568.908 444.586C567.596 445.162 566.175 445.699 564.762 445.456C563.349 445.213 562.028 443.887 562.312 442.482C564.906 429.634 561.648 415.723 553.62 405.363C550.806 401.732 547.457 398.537 544.715 394.852C542.987 392.53 541.451 389.609 542.327 386.851C543.574 382.925 548.595 381.971 552.704 381.69C562.256 381.039 571.808 380.388 581.361 379.737C585.762 379.437 590.831 379.393 593.769 382.684C601.948 391.845 617.89 392.46 626.75 383.956C628.121 382.64 629.848 385.26 629.793 387.16C629.622 393.133 627.161 399.011 623.025 403.324C622.049 404.342 620.801 405.339 619.399 405.193C617.997 405.047 616.963 403.033 618.081 402.174C620.479 400.332 622.922 398.443 624.604 395.93C626.285 393.416 627.101 390.12 625.954 387.322C619.784 395.128 613.554 402.887 607.266 410.599C596.364 423.97 584.704 437.647 568.908 444.586ZM586.138 405.239C584.569 405.673 582.895 405.34 581.328 404.897C570.054 401.711 559.667 392.902 548.134 394.964C561.581 405.794 568.721 423.953 566.251 441.042C575.112 439.145 582.109 432.53 588.384 425.994C597.673 416.319 606.492 406.194 614.802 395.667C608.829 395.618 602.879 393.895 597.804 390.745C591.535 392.296 592.363 403.517 586.138 405.239ZM594.326 387.452C590.591 383.049 583.879 383.185 578.128 383.69C570.626 384.349 563.124 385.008 555.622 385.667C552.576 385.934 549.078 386.469 547.49 389.082C560.474 391.8 573.133 396.069 585.111 401.77C586.652 396.931 589.74 392.598 593.811 389.561C594.269 389.22 594.793 388.782 594.732 388.214C594.701 387.923 594.515 387.675 594.326 387.452V387.452Z" fill="#FFB61D"/>
<path fill-rule="evenodd" clip-rule="evenodd" d="M38.1506 282.456C26.8513 277.937 13.386 279.277 3.19902 285.934C2.2128 286.579 0.794887 285.86 0.306664 284.788C-0.181557 283.716 0.00105918 282.468 0.250793 281.317C3.50431 266.317 16.4654 254.84 30.8792 249.566C45.2931 244.291 61.0594 244.277 76.3815 245.178C77.9018 245.268 79.4909 245.387 80.7877 246.185C82.0846 246.984 82.9571 248.691 82.3107 250.07C76.2834 262.928 71.7431 276.482 68.8091 290.377C68.3333 292.63 66.003 294.125 63.708 294.312C61.413 294.5 59.1642 293.652 57.0814 292.67C50.5904 289.609 44.8139 285.12 38.1506 282.456ZM39.4422 267.278C38.4352 268.097 36.8612 267.664 35.9136 266.778C34.9661 265.892 34.4262 264.665 33.6813 263.603C29.6862 257.904 20.5181 258.377 15.0838 262.725C9.64939 267.073 7.0197 273.944 4.62505 280.479C20.5682 273.554 40.2049 276.039 53.9202 286.717C55.7928 288.175 57.6509 289.818 59.9568 290.379C62.2627 290.94 65.1676 289.932 65.7517 287.632C68.872 275.343 72.717 263.239 77.2603 251.402C68.5429 262.238 50.2358 258.509 39.4422 267.278ZM35.973 260.73C36.8683 261.855 38.4938 262.153 39.9089 261.9C41.3239 261.646 42.6095 260.941 43.928 260.368C48.4674 258.395 53.4951 257.954 58.3618 257.052C63.2285 256.15 68.2482 254.623 71.6742 251.051C63.9443 251.027 56.2144 251.004 48.4845 250.981C40.7162 250.957 32.3451 251.122 26.1044 255.748C29.9034 255.887 33.6055 257.756 35.973 260.73Z" fill="#FFB61D"/>
<path fill-rule="evenodd" clip-rule="evenodd" d="M401.17 281.419C401.151 274.62 401.133 267.821 401.115 261.022C401.11 259.069 401.104 257.117 401.099 255.164C401.095 253.817 401.321 252.133 402.601 251.714C403.569 251.397 404.634 252.093 405.087 253.005C405.539 253.917 405.534 254.981 405.519 255.999C405.377 265.487 405.236 274.976 405.095 284.464C405.075 285.828 404.846 287.507 403.568 287.986C401.437 286.779 401.176 283.868 401.17 281.419H401.17Z" fill="#e0e"/>
<path fill-rule="evenodd" clip-rule="evenodd" d="M387.595 275.127C386.611 275.559 386.104 273.937 386.256 272.873C386.8 269.066 387.346 265.25 388.272 261.517C388.848 259.193 389.679 256.748 391.599 255.317C393.518 253.885 396.814 254.136 397.753 256.338C398.208 257.405 398.019 258.624 397.81 259.765C396.518 266.828 394.777 273.81 392.602 280.653C392.51 280.943 392.409 281.246 392.189 281.457C391.654 281.97 390.689 281.625 390.318 280.983C389.947 280.341 389.995 279.55 390.055 278.811C390.938 278.746 391.35 277.706 391.563 276.846C392.429 273.332 393.296 269.819 394.163 266.305C394.837 263.571 395.453 260.457 393.883 258.119C392.271 259.112 391.665 261.12 391.185 262.952C390.22 266.637 389.254 270.322 388.289 274.007C388.174 274.447 388.012 274.944 387.595 275.127L387.595 275.127Z" fill="#e0e"/>
</svg>
